<?xml version="1.0" encoding="UTF-8"?>
<svg id="_レイヤー_1" data-name="レイヤー 1" xmlns="http://www.w3.org/2000/svg" viewBox="0 0 595.28 595.29">
  <defs>
    <style>
      .cls-1 {
        fill: #f2e3c4;
      }
    </style>
  </defs>
  <path class="cls-1" d="m283.29,321.09c-11.87,0-21.52-9.65-21.52-21.52s9.65-21.52,21.52-21.52,21.52,9.65,21.52,21.52-9.65,21.52-21.52,21.52Zm0-31.04c-5.25,0-9.52,4.27-9.52,9.52s4.27,9.52,9.52,9.52,9.52-4.27,9.52-9.52-4.27-9.52-9.52-9.52Z"/>
  <path class="cls-1" d="m333.25,330.84h-4.91c-3.13,0-5.67-2.54-5.67-5.67v-58.94c0-.78.63-1.42,1.42-1.42h4.91c3.13,0,5.67,2.54,5.67,5.67v58.94c0,.78-.63,1.42-1.42,1.42Z"/>
  <circle class="cls-1" cx="358.53" cy="324.51" r="6"/>
  <path class="cls-1" d="m421.24,331.19h-13.51c-10.71,0-19.4-8.68-19.4-19.4v-4.15c0-4.78-3.88-8.66-8.66-8.66h-9.47c-3.13,0-5.67-2.54-5.67-5.67v-4.91c0-.78.63-1.42,1.42-1.42h13.72c11.41,0,20.66,9.25,20.66,20.66v4.15c0,4.09,3.31,7.4,7.4,7.4h9.26c3.13,0,5.67,2.54,5.67,5.67v4.91c0,.78-.63,1.42-1.42,1.42Z"/>
  <path class="cls-1" d="m178.56,330.51c-1.78,0-3.6-.3-5.39-.94-6.39-2.25-10.52-8.49-10.52-15.27v-48.8c0-.78.63-1.42,1.42-1.42h4.91c3.13,0,5.67,2.54,5.67,5.67v44.94c0,2.47,1.82,3.34,2.61,3.59.78.25,2.76.64,4.22-1.36l33.4-45.61c4.23-5.77,11.35-8.06,18.15-5.84,6.8,2.22,11.19,8.28,11.19,15.43v47.79c0,.78-.63,1.42-1.42,1.42h-4.91c-3.13,0-5.67-2.54-5.67-5.67v-43.54c0-2.85-2.23-3.8-2.92-4.03-.69-.23-3.05-.78-4.74,1.52l-33.4,45.61c-3.07,4.19-7.7,6.49-12.6,6.49Z"/>
</svg>